PathFileType	4	(X/Y/Z)	Kaydara																																																																																																																									
DataRate	CameraRate	NumFrames	NumMarkers	Units	OrigDataRate	OrigDataStartFrame	OrigNumFrames																																																																																																																					
30	30	5	41	mm	30	85	111																																																																																																																					
Frame#	Time	PAIB_LFHD			PAIB_RFHD			PAIB_LBHD			PAIB_RBHD			PAIB_LFTShould			PAIB_RFTShould			PAIB_LRRShould			PAIB_RRRShould			PAIB_T10			PAIB_STRN			PAIB_TRUN			PAIB_LSHO			PAIB_LUPA			PAIB_LELB			PAIB_LFRM			PAIB_LWRA			PAIB_LWRB			PAIB_LFIN			PAIB_RSHO			PAIB_RUPA			PAIB_RELB			PAIB_RFRM			PAIB_RWRA			PAIB_RWRB			PAIB_RFIN			PAIB_LFWT			PAIB_RFWT			PAIB_LBWT			PAIB_RBWT			PAIB_LTHI			PAIB_LKNE			PAIB_LSHN			PAIB_LANK			PAIB_LHEE			PAIB_LTOE			PAIB_RTHI			PAIB_RKNE			PAIB_RSHN			PAIB_RANK			PAIB_RHEE			PAIB_RTOE		
		X1	Y1	Z1	X2	Y2	Z2	X3	Y3	Z3	X4	Y4	Z4	X5	Y5	Z5	X6	Y6	Z6	X7	Y7	Z7	X8	Y8	Z8	X9	Y9	Z9	X10	Y10	Z10	X11	Y11	Z11	X12	Y12	Z12	X13	Y13	Z13	X14	Y14	Z14	X15	Y15	Z15	X16	Y16	Z16	X17	Y17	Z17	X18	Y18	Z18	X19	Y19	Z19	X20	Y20	Z20	X21	Y21	Z21	X22	Y22	Z22	X23	Y23	Z23	X24	Y24	Z24	X25	Y25	Z25	X26	Y26	Z26	X27	Y27	Z27	X28	Y28	Z28	X29	Y29	Z29	X30	Y30	Z30	X31	Y31	Z31	X32	Y32	Z32	X33	Y33	Z33	X34	Y34	Z34	X35	Y35	Z35	X36	Y36	Z36	X37	Y37	Z37	X38	Y38	Z38	X39	Y39	Z39	X40	Y40	Z40	X41	Y41	Z41
																																																																																																																												
70	2.8	243.19363	1597.70035	-85.52146	57.92016	1602.48215	-92.27613	255.51704	1596.38992	-214.19603	52.06695	1610.67337	-207.58039	197.88061	1357.04712	-168.64035	76.37406	1359.88052	-172.4535	217.52804	1453.75992	-288.8036	66.2749	1464.13284	-282.77018	129.9413	1335.03632	-414.43748	140.10275	1284.23782	-153.86337	133.87375	1180.59509	-163.03976	328.98064	1371.21719	-243.7501	397.79808	1159.0387	-304.069	423.20179	1090.87662	-356.50826	411.75205	971.24313	-300.71163	312.73758	882.70538	-223.19458	368.08113	849.31412	-272.46109	354.17473	829.56589	-200.48996	-51.28103	1391.65115	-230.86353	-141.98614	1278.84972	-350.89638	-186.35172	1187.84241	-412.46563	-211.54953	1049.50089	-435.11734	-149.56507	917.99873	-388.6335	-221.25416	920.72853	-435.76118	-213.36906	869.4014	-379.5673	246.67042	939.99405	-282.31018	12.33511	924.23195	-280.41172	178.6356	1000.6279	-493.56285	37.25177	992.30179	-486.05091	231.27991	726.33324	-495.48298	247.51385	469.04202	-384.20586	207.01595	276.52716	-404.09275	191.94822	109.57337	-523.81664	130.83219	108.07178	-568.63209	192.7491	61.34276	-360.85663	-15.77411	667.43912	-426.772	-25.1541	451.74362	-285.88261	47.83158	297.3819	-382.10728	33.92579	204.14307	-581.9582	100.39413	223.13313	-604.19945	19.69064	85.81755	-439.53728
71	2.833	240.27098	1589.90311	-20.38028	55.23515	1594.69208	-28.18603	253.14838	1589.34494	-149.07478	49.5854	1603.64197	-143.02384	191.0144	1348.15643	-101.66558	69.49563	1353.02094	-112.67932	219.89965	1445.07324	-221.00758	68.3291	1457.76337	-222.53496	137.79706	1327.4028	-350.89855	132.62079	1276.05881	-90.23603	126.50226	1172.58118	-99.12807	326.66039	1360.18707	-168.54015	397.63035	1147.22557	-214.06927	428.20751	1075.18028	-260.10611	395.79887	968.40843	-188.62148	277.84124	906.81946	-111.41177	334.56566	859.14207	-145.69508	308.15725	854.48677	-73.88663	-52.32104	1386.83472	-177.53933	-139.17396	1287.83081	-308.68464	-184.92546	1203.99452	-379.3457	-214.34584	1068.22052	-412.24354	-160.99085	931.24352	-370.82153	-229.17608	939.99031	-422.32597	-227.18134	884.89304	-369.221	249.63915	930.17624	-216.73203	15.5788	922.16476	-213.79395	181.90859	992.51961	-427.43282	38.94431	981.64642	-421.23047	230.15106	730.36316	-449.26643	247.27381	465.61749	-375.69458	207.10213	274.58546	-400.09251	190.33356	110.32376	-522.45602	129.32429	110.16045	-566.36784	192.70264	58.1988	-358.99265	-25.96998	662.314	-330.22869	-32.04608	470.51098	-152.05639	35.63096	295.37277	-215.98906	20.2749	161.84214	-392.1706	87.09435	174.03778	-417.74811	4.97805	78.51758	-226.39729
72	2.867	235.26129	1576.04111	46.8796	50.01193	1578.10852	37.4147	249.34877	1575.62561	-81.61396	45.57749	1586.71097	-77.59803	184.94238	1328.23044	-34.52679	63.28258	1336.47415	-51.1995	220.92062	1428.91266	-150.75705	70.2097	1442.83768	-160.12318	145.52766	1312.23923	-285.20056	124.64194	1259.25926	-25.40333	118.92534	1155.81673	-35.2131	323.25993	1344.5314	-90.6737	406.16749	1134.11064	-127.73626	435.91084	1059.02466	-163.95681	383.34007	969.9836	-80.44388	252.83077	937.48741	-7.16525	305.94658	878.54347	-27.08237	273.49844	888.90793	41.29345	-53.57734	1375.2597	-123.44492	-136.66959	1293.74649	-265.46831	-184.96342	1217.06215	-342.20047	-218.65913	1083.26248	-382.48417	-173.43588	942.71172	-343.06229	-238.10637	956.01204	-397.97741	-241.63456	899.00673	-346.92085	253.62986	912.39487	-151.86612	18.89361	911.4389	-145.71564	181.62901	975.78117	-363.96431	38.32842	963.97125	-356.0482	226.78679	729.78935	-402.57084	247.25855	461.5184	-361.37112	208.74697	273.42321	-393.37254	188.82992	113.24565	-520.65197	126.5892	114.23568	-562.56447	193.89343	55.18018	-356.77197	-30.95928	654.74747	-234.3154	-37.71541	485.00446	-31.69488	26.52732	297.39639	-53.43854	6.01727	123.88077	-189.06256	72.41678	128.9703	-217.94237	-6.17189	81.83	-7.08236
73	2.9	228.21972	1558.19061	117.25912	43.04445	1559.28802	104.86562	244.33758	1555.8316	-10.98277	40.58064	1566.04614	-10.54195	176.34274	1307.65488	37.43273	56.3292	1315.67474	12.01947	220.74055	1409.52362	-75.17057	71.11496	1424.00665	-94.16655	152.67332	1292.84653	-214.13033	115.97824	1237.59377	41.63346	111.18167	1134.30069	29.78972	319.72158	1327.12128	-8.87987	413.25996	1121.26724	-38.89557	444.06311	1045.55908	-71.02161	376.73721	976.48003	20.39608	238.34383	969.2601	87.28142	286.71097	903.52486	81.40501	250.79809	927.55417	144.1376	-54.29076	1359.12018	-66.57273	-133.14237	1294.70764	-216.39334	-185.17262	1225.42404	-297.74807	-224.54731	1093.91418	-343.07457	-188.78952	950.31601	-304.42667	-250.12289	968.14529	-361.95168	-259.05193	910.67421	-312.18491	256.51312	891.81328	-87.75222	21.6291	895.13229	-74.99171	175.90456	951.09077	-300.11646	33.91441	945.01358	-287.99494	219.55847	729.36485	-349.92725	248.44782	460.57114	-341.52946	212.42853	274.9036	-383.77068	189.48811	120.58495	-518.03093	126.2472	123.34843	-557.7887	195.08266	54.94853	-356.98338	-29.44356	645.98122	-144.04615	-41.92679	492.51812	72.17036	16.87274	304.43233	99.48892	-8.24037	100.24919	18.40588	57.91791	98.6482	-11.55266	-18.44223	97.73832	208.17783
74	2.933	219.75624	1542.03262	191.52861	34.7125	1542.29843	176.58945	237.74302	1538.05115	63.59586	33.88885	1547.37778	61.00771	168.1332	1285.32822	112.22638	48.91819	1295.76965	79.41059	218.65351	1392.5	3.67194	70.24033	1407.36542	-24.13129	158.41383	1276.66054	-140.12372	106.8488	1216.68297	111.94081	102.97479	1113.60153	98.31147	313.02397	1312.62604	77.89151	416.35628	1112.72217	46.44342	448.28014	1038.32176	15.68041	374.37492	982.38426	112.04323	233.07182	989.75235	173.29687	278.24411	921.91612	176.13525	242.09328	954.81995	234.37933	-55.37861	1343.58047	-4.70664	-129.3838	1290.70663	-157.43813	-185.19249	1228.07693	-242.20476	-231.4694	1099.71863	-290.84061	-205.38401	953.59779	-253.8752	-264.51088	976.20758	-312.13284	-277.95284	918.9872	-263.02355	256.43568	872.14531	-19.73672	23.96071	880.53215	1.63034	167.50448	938.26912	-229.38536	27.9586	931.97182	-211.76008	207.25418	726.0582	-288.56066	249.72372	462.04521	-308.9242	215.70179	277.65299	-363.63571	194.33918	134.36705	-510.779	131.67214	140.21318	-550.42282	196.8141	54.95027	-357.83138	-27.93451	634.94732	-67.92521	-41.56007	489.64493	159.15101	10.08309	314.05354	230.75916	-20.40162	97.00457	202.31068	46.17271	86.73373	172.08576	-24.85811	136.26984	390.79235
